<svg xmlns="http://www.w3.org/2000/svg" fill="none" viewBox="0 0 180 73" height="73" width="180">
<g clip-path="url(#clip0_7973_125752)">
<path fill="#A68480" d="M35.3002 10.3826C37.1581 10.3826 38.7974 10.2734 40.2182 10.2734V27.2131C40.2182 29.3989 40.3275 31.4753 40.6553 33.5518C40.8739 35.6283 41.4204 37.4862 42.1854 39.1255C42.9504 40.7649 43.934 42.0763 45.2455 43.0599C46.5569 44.0435 48.3055 44.4807 50.4913 44.4807C52.3492 44.4807 53.9885 43.9342 55.4093 42.8413C56.83 41.7485 57.9229 40.437 58.9065 38.7977C59.7808 37.1583 60.5459 35.3004 60.983 33.3332C61.4202 31.366 61.748 29.2896 61.748 27.3224V15.8471C61.748 14.0985 61.4202 12.787 60.983 12.022C60.4366 11.2569 59.3437 10.8198 57.8136 10.8198V10.2734C59.0158 10.3826 59.9994 10.3826 60.8737 10.3826C61.748 10.3826 62.5131 10.3826 63.1688 10.3826C64.0431 10.3826 64.9174 10.3826 65.7917 10.3826C66.5567 10.3826 67.5403 10.2734 68.5239 10.2734V37.7048C68.5239 38.3605 68.5239 39.0162 68.5239 39.8906C68.5239 40.6556 68.6332 41.4206 68.8518 42.0763C69.0704 42.7321 69.3982 43.2785 69.8354 43.7157C70.2725 44.1528 71.0376 44.3714 71.9119 44.3714V44.9178C70.1633 44.9178 68.6332 44.8085 67.3217 44.4807C65.901 44.2621 64.9174 43.8249 64.0431 43.1692C63.2781 42.5135 62.6223 41.6392 62.1852 40.5463C61.748 39.4534 61.6387 38.1419 61.6387 36.5026V32.5682C61.3109 34.0983 60.8737 35.6283 60.3273 37.0491C59.7808 38.4698 59.0158 39.7813 58.0322 40.9834C57.0486 42.1856 55.9557 43.0599 54.7536 43.8249C53.4421 44.59 52.0213 44.9178 50.382 45.0271C47.7591 45.1364 45.464 44.8085 43.3875 44.0435C41.3111 43.2785 39.5624 42.0763 38.1417 40.5463C36.7209 39.0162 35.6281 37.1583 34.863 34.9726C34.098 32.7868 33.6609 30.3824 33.6609 27.6502V16.0656C33.6609 14.2077 33.333 12.8963 32.8958 12.022C32.3494 11.1477 31.3658 10.7105 29.6172 10.7105V10.1641C31.5844 10.3826 33.4423 10.3826 35.3002 10.3826Z"></path>
<path fill="#A68480" d="M72.6797 27.6502C72.6797 25.1366 73.1168 22.8415 73.8819 20.6558C74.6469 18.5793 75.8491 16.7214 77.2698 15.082C78.7999 13.552 80.5485 12.3498 82.6249 11.4755C84.7014 10.6012 86.9965 10.1641 89.6194 10.1641C94.1002 10.1641 98.2532 11.4755 101.969 13.9892L100.002 20.7651H99.7833C99.4554 19.4536 99.1275 18.1421 98.5811 16.94C98.0346 15.7378 97.2696 14.6449 96.5046 13.7706C95.6303 12.8963 94.6467 12.1313 93.5538 11.5848C92.4609 11.0384 91.2587 10.8198 89.838 10.8198C87.8708 10.8198 86.1222 11.2569 84.8107 12.2405C83.4993 13.1149 82.4064 14.317 81.5321 15.8471C80.6578 17.3771 80.1113 19.0164 79.7834 20.9836C79.3463 22.8415 79.1277 24.8087 79.1277 26.7759C79.1277 28.8524 79.3463 31.0382 79.6742 33.1147C80.002 35.1911 80.6578 37.0491 81.5321 38.7977C82.4064 40.437 83.6085 41.8578 85.0293 42.8413C86.4501 43.9342 88.308 44.3714 90.3844 44.3714C93.1167 44.1528 95.4117 43.2785 97.2696 41.6392C99.1275 39.9998 100.548 37.9234 101.641 35.4097L102.188 35.6283C100.985 38.5791 99.3461 40.7649 97.1603 42.4042C94.9746 44.0435 92.3516 44.9178 89.2916 44.9178C86.8872 44.9178 84.5921 44.4807 82.6249 43.6064C80.6578 42.7321 78.7999 41.5299 77.3791 39.9998C75.9583 38.4698 74.7562 36.6119 73.9912 34.5354C73.1168 32.4589 72.6797 30.1639 72.6797 27.6502Z"></path>
<path fill="#A68480" d="M104.594 44.4807C106.233 44.4807 107.326 44.0435 107.872 43.1692C108.419 42.2949 108.637 40.9834 108.637 39.1255V19.8907C108.637 18.7979 108.637 17.9236 108.637 17.0492C108.637 16.2842 108.528 15.5192 108.31 14.9728C108.091 14.4263 107.763 13.9892 107.326 13.6613C106.889 13.3334 106.233 13.1149 105.359 13.1149V12.5684C106.124 12.4591 106.889 12.3498 107.763 12.2405C108.637 12.1313 109.512 11.9127 110.386 11.6941C111.26 11.4755 112.135 11.2569 113.009 11.0384C113.883 10.8198 114.648 10.4919 115.304 10.1641V39.3441C115.304 41.0927 115.632 42.4042 116.178 43.1692C116.725 43.9342 117.818 44.3714 119.348 44.3714V44.9178C118.364 44.8085 117.162 44.8085 115.741 44.8085C114.32 44.8085 112.9 44.8085 111.26 44.8085C110.167 44.8085 109.075 44.8085 107.982 44.8085C106.889 44.8085 105.796 44.9178 104.703 44.9178L104.594 44.4807Z"></path>
<path fill="#A68480" d="M123.172 44.4797C124.811 44.4797 125.904 44.0426 126.451 43.1683C126.997 42.294 127.216 40.9825 127.216 39.1246V17.4855C127.216 16.3926 127.216 15.5183 127.216 14.644C127.216 13.8789 127.106 13.1139 126.888 12.5675C126.669 12.021 126.341 11.5839 125.904 11.256C125.467 10.9282 124.811 10.7096 123.937 10.7096V10.1631C124.702 10.0538 125.467 9.94456 126.341 9.83527C127.216 9.72598 128.09 9.50741 128.964 9.28883C129.838 9.07025 130.713 8.85167 131.587 8.6331C132.461 8.41452 133.226 8.08665 133.882 7.75879V21.9663C134.101 20.327 134.538 18.6876 135.194 17.2669C135.849 15.7369 136.833 14.4254 138.144 13.3325C139.347 12.2396 140.877 11.3653 142.735 10.8189C144.483 10.2724 146.669 10.0538 149.073 10.1631L148.964 16.8297C148.199 16.6112 147.434 16.5019 146.56 16.3926C145.795 16.2833 145.03 16.2833 144.265 16.2833C142.735 16.2833 141.423 16.5019 140.112 16.8297C138.8 17.1576 137.707 17.8133 136.833 18.4691C135.959 19.2341 135.194 20.2177 134.647 21.3106C134.101 22.5127 133.882 23.8242 133.882 25.3542V39.1246C133.882 40.8732 134.21 42.1847 134.756 42.9497C135.303 43.7147 136.396 44.1519 137.926 44.1519V44.6983C136.177 44.589 134.866 44.589 133.773 44.4797C132.68 44.3705 131.696 44.3705 130.822 44.3705C129.838 44.3705 128.855 44.3705 127.762 44.4797C126.669 44.4797 125.248 44.589 123.5 44.6983H123.172V44.4797Z"></path>
<path fill="#A68480" d="M145.461 34.8632C145.461 33.2239 145.789 31.9124 146.445 30.7102C147.1 29.5081 148.084 28.5245 149.177 27.7594C150.27 26.9944 151.69 26.3387 153.22 25.7923C154.75 25.2458 156.39 24.9179 158.029 24.5901C156.499 24.2622 155.188 23.7158 154.204 22.9508C153.22 22.1857 152.455 21.2021 152.128 20.1092C151.69 19.0164 151.581 17.9235 151.69 16.8306C151.8 15.7377 152.237 14.6448 153.002 13.6612C153.767 12.6776 154.75 11.9126 155.953 11.2569C157.155 10.6011 158.685 10.3826 160.433 10.3826C162.51 10.3826 164.477 10.6011 166.335 10.929C168.193 11.3662 169.832 11.9126 171.253 12.8962C172.674 13.7705 173.876 14.9727 174.75 16.3934C175.625 17.8142 176.171 19.6721 176.39 21.7486C176.499 22.295 176.499 22.9508 176.499 23.4972V34.9725C176.499 36.1747 176.499 37.3768 176.499 38.579C176.499 39.6719 176.608 40.7648 176.827 41.6391C177.045 42.5134 177.373 43.2784 177.81 43.8249C178.248 44.3713 179.013 44.5899 179.996 44.5899V45.1363C178.248 45.1363 176.717 45.027 175.406 44.6992C174.095 44.4806 173.111 43.9342 172.237 43.3877C171.472 42.732 170.816 41.8577 170.379 40.7648C169.942 39.6719 169.832 38.3604 169.832 36.7211C168.849 39.4533 167.428 41.5298 165.351 42.9506C163.275 44.3713 160.761 45.1363 157.592 45.2456C153.548 45.3549 150.488 44.4806 148.412 42.6227C146.445 40.5462 145.461 38.0326 145.461 34.8632ZM151.909 35.4097C151.909 38.0326 152.455 39.9998 153.658 41.5298C154.86 43.0599 156.718 43.7156 159.341 43.7156C160.761 43.7156 162.182 43.497 163.494 43.0599C164.805 42.6227 165.898 41.8577 166.882 40.8741C167.865 39.8905 168.63 38.4697 169.177 36.9397C169.723 35.3004 170.051 33.3332 170.051 30.9288V24.5901C168.958 24.5901 167.865 24.5901 166.554 24.5901C165.242 24.5901 163.931 24.6994 162.619 24.9179C161.308 25.1365 159.996 25.4644 158.685 25.9015C157.373 26.3387 156.281 26.9944 155.297 27.7594C154.313 28.5245 153.548 29.6174 152.893 30.9288C152.237 32.0217 151.909 33.661 151.909 35.4097ZM152.128 17.9235C152.128 18.6885 152.346 19.4535 152.674 20.3278C153.439 21.7486 154.423 22.8415 155.843 23.4972C157.264 24.1529 158.685 24.3715 160.324 24.3715C161.745 24.1529 163.166 24.0436 164.477 24.0436C165.898 24.0436 167.209 23.9343 168.521 23.9343H170.051C170.051 22.0764 169.832 20.3278 169.504 18.7978C169.177 17.1585 168.63 15.847 167.865 14.7541C167.1 13.6612 166.116 12.6776 164.914 12.0219C163.712 11.3662 162.182 11.0383 160.324 10.929C159.231 10.929 158.248 11.0383 157.264 11.3662C156.281 11.694 155.406 12.1312 154.641 12.6776C153.876 13.2241 153.33 13.9891 152.783 14.8634C152.346 15.7377 152.128 16.7213 152.128 17.9235ZM165.351 1.4209L159.45 8.85252H158.576L163.384 1.4209H165.351Z"></path>
<path fill="#A68480" d="M3.8251 5.246C3.71581 4.48098 3.49723 3.93454 3.27866 3.38809C2.95079 2.95094 2.62293 2.51378 2.07648 2.29521C1.53004 2.07663 0.874309 1.96734 0 1.96734V1.4209C1.63933 1.53019 3.06008 1.63948 4.15296 1.63948C5.24585 1.63948 6.22945 1.74876 7.32233 1.74876C8.30593 1.74876 9.39882 1.74876 10.4917 1.63948C11.5846 1.63948 13.0053 1.53019 14.754 1.4209V1.96734C13.8796 1.96734 13.2239 2.07663 12.6775 2.29521C12.131 2.51378 11.6939 2.84165 11.4753 3.2788C11.1474 3.71596 10.9289 4.2624 10.8196 4.91813C10.7103 5.57386 10.601 6.33888 10.601 7.32248V44.4806C13.0053 44.4806 15.0818 44.3713 16.8304 44.0434C18.5791 43.7156 20.2184 43.2784 21.6391 42.5134C23.0599 41.7484 24.3714 40.8741 25.5735 39.6719C26.7757 38.4697 27.9779 37.049 29.2893 35.3004H29.3986C29.5079 35.3004 29.5079 35.4096 29.5079 35.4096C29.5079 35.4096 29.6172 35.4096 29.6172 35.5189L27.8686 44.9177V45.027H0.655731V44.4806C1.42075 44.4806 1.96719 44.3713 2.40435 44.1527C2.8415 43.9342 3.16937 43.6063 3.38795 43.1691C3.60652 42.732 3.8251 42.1855 3.8251 41.6391C3.93439 41.0926 3.93439 40.3276 3.93439 39.6719V7.97821C4.04368 6.77604 3.93439 6.01102 3.8251 5.246Z"></path>
<path fill="#A68480" d="M115.407 4.69941C113.877 4.69941 110.707 7.86878 110.707 9.39882C110.707 7.86878 107.538 4.69941 106.008 4.69941C107.538 4.69941 110.707 1.53004 110.707 0C110.707 1.53004 113.877 4.69941 115.407 4.69941Z"></path>
<path fill="#A68480" d="M28.8544 57.0478V66.1187C28.8544 67.2116 28.7451 67.9766 28.6358 68.5231C28.5265 69.1788 28.1986 69.616 27.8708 70.0531C27.1057 70.9274 26.2314 71.2553 25.0293 71.2553C24.155 71.2553 23.2806 71.0367 22.5156 70.5995L23.6085 68.7416C24.155 69.0695 24.5921 69.2881 25.0293 69.2881C25.685 69.2881 26.1221 69.0695 26.3407 68.5231C26.5593 68.0859 26.7779 67.2116 26.7779 66.0094V56.9385L28.8544 57.0478Z"></path>
<path fill="#A68480" d="M49.2907 59.015H43.6077V62.403H46.7771V64.3702H43.6077V69.0696H49.2907V71.0368H41.5312V57.0479H49.2907V59.015Z"></path>
<path fill="#A68480" d="M62.0763 57.0483L65.7921 66.4471L69.6172 56.3926L73.333 66.4471L77.2674 57.0483H79.5625L73.2237 72.0208L69.6172 62.0756L65.7921 72.0208L59.7812 57.0483H62.0763Z"></path>
<path fill="#A68480" d="M98.361 59.015H92.678V62.403H95.8474V64.3702H92.678V69.0696H98.361V71.0368H90.6016V57.0479H98.361V59.015Z"></path>
<path fill="#A68480" d="M112.569 57.0479V69.1789H116.722V71.1461H110.492V57.0479H112.569Z"></path>
<path fill="#A68480" d="M132.785 65.1352L137.157 71.1461H134.534L130.49 65.3538H130.053V71.1461H127.977V57.0479H130.49C132.348 57.0479 133.66 57.3757 134.534 58.1407C135.408 58.9058 135.955 59.9986 135.955 61.2008C135.955 62.1844 135.627 63.0587 135.08 63.8237C134.534 64.4795 133.769 64.9166 132.785 65.1352ZM130.162 63.4959H130.818C132.785 63.4959 133.878 62.7309 133.878 61.2008C133.878 59.7801 132.895 59.015 130.927 59.015H130.162V63.4959Z"></path>
<path fill="#A68480" d="M150.825 65.0259L146.234 57.0479H148.639L151.808 62.6216L155.087 57.0479H157.491L152.901 65.0259V71.1461H150.825V65.0259Z"></path>
</g>
<defs>
<clipPath id="clip0_7973_125752">
<rect fill="white" height="72.0209" width="180"></rect>
</clipPath>
</defs>
</svg>
