<svg width="40" height="40" viewBox="0 0 80 80" fill="none" xmlns="http://www.w3.org/2000/svg">
                <path d="M53.0647 70H12.9401C12.0281 69.9989 11.1537 69.6226 10.5087 68.9537C9.86382 68.2847 9.50104 67.3777 9.5 66.4317V13.5689C9.50089 12.6227 9.8636 11.7156 10.5085 11.0465C11.1535 10.3775 12.028 10.0011 12.9401 10H47.1782C47.3289 10.0001 47.478 10.0311 47.6171 10.091C47.7562 10.151 47.8826 10.2388 47.989 10.3494L56.1685 18.8331C56.3838 19.056 56.505 19.3585 56.5054 19.6741V27.5468C56.4988 27.8577 56.375 28.1536 56.1607 28.371C55.9463 28.5885 55.6584 28.7103 55.3586 28.7103C55.0588 28.7103 54.7709 28.5885 54.5565 28.371C54.3422 28.1536 54.2184 27.8577 54.2118 27.5468V20.1668L46.7038 12.3791H12.9401C12.6361 12.3794 12.3445 12.5048 12.1296 12.7279C11.9146 12.951 11.7938 13.2535 11.7936 13.5689V66.4317C11.7939 66.747 11.9148 67.0493 12.1298 67.2723C12.3447 67.4952 12.6362 67.6206 12.9401 67.6209H53.0647C53.3687 67.6206 53.6601 67.4952 53.8751 67.2723C54.09 67.0493 54.2109 66.747 54.2112 66.4317V64.0526C54.2078 63.8942 54.235 63.7367 54.2911 63.5893C54.3472 63.4419 54.4312 63.3076 54.538 63.1944C54.6448 63.0811 54.7724 62.9911 54.9132 62.9296C55.054 62.8682 55.2053 62.8365 55.358 62.8365C55.5108 62.8365 55.662 62.8682 55.8029 62.9296C55.9437 62.9911 56.0712 63.0811 56.1781 63.1944C56.2849 63.3076 56.3688 63.4419 56.4249 63.5893C56.4811 63.7367 56.5082 63.8942 56.5048 64.0526V66.4323C56.5038 67.3783 56.141 68.2852 55.4961 68.9541C54.8511 69.6229 53.9767 69.9991 53.0647 70Z" fill="#BC7586"></path>
                <path d="M55.354 20.8646H49.4675C48.5553 20.8635 47.6808 20.4871 47.0359 19.818C46.3909 19.149 46.0282 18.2418 46.0273 17.2957V11.1905C46.0271 10.955 46.0943 10.7248 46.2203 10.529C46.3463 10.3331 46.5256 10.1805 46.7353 10.0904C46.9451 10.0004 47.1759 9.97692 47.3985 10.023C47.6211 10.0692 47.8255 10.1828 47.9858 10.3495L56.1647 18.8338C56.325 19.0002 56.4342 19.2121 56.4784 19.4428C56.5226 19.6735 56.4999 19.9126 56.4131 20.13C56.3263 20.3473 56.1794 20.5331 55.9909 20.6638C55.8024 20.7946 55.5807 20.8644 55.354 20.8646ZM48.3226 14.0617V17.2957C48.3228 17.6111 48.4436 17.9136 48.6586 18.1366C48.8736 18.3597 49.1651 18.4852 49.4692 18.4855H52.587L48.3226 14.0617Z" fill="#BC7586"></path>
                <path d="M39.6631 23.1489H17.0357C16.883 23.1524 16.7311 23.1242 16.589 23.066C16.4469 23.0078 16.3175 22.9207 16.2083 22.8099C16.0991 22.6991 16.0123 22.5668 15.953 22.4207C15.8938 22.2747 15.8633 22.1178 15.8633 21.9594C15.8633 21.8009 15.8938 21.644 15.953 21.498C16.0123 21.3519 16.0991 21.2196 16.2083 21.1088C16.3175 20.998 16.4469 20.9109 16.589 20.8527C16.7311 20.7945 16.883 20.7663 17.0357 20.7698H39.6631C39.8158 20.7663 39.9677 20.7945 40.1098 20.8527C40.2519 20.9109 40.3814 20.998 40.4906 21.1088C40.5998 21.2196 40.6866 21.3519 40.7458 21.498C40.8051 21.644 40.8356 21.8009 40.8356 21.9594C40.8356 22.1178 40.8051 22.2747 40.7458 22.4207C40.6866 22.5668 40.5998 22.6991 40.4906 22.8099C40.3814 22.9207 40.2519 23.0078 40.1098 23.066C39.9677 23.1242 39.8158 23.1524 39.6631 23.1489Z" fill="#BC7586"></path>
                <path d="M39.6631 29.1801H17.0357C16.883 29.1836 16.7311 29.1555 16.589 29.0973C16.4469 29.0391 16.3175 28.952 16.2083 28.8412C16.0991 28.7304 16.0123 28.5981 15.953 28.452C15.8938 28.3059 15.8633 28.1491 15.8633 27.9906C15.8633 27.8321 15.8938 27.6753 15.953 27.5292C16.0123 27.3831 16.0991 27.2508 16.2083 27.14C16.3175 27.0292 16.4469 26.9422 16.589 26.8839C16.7311 26.8257 16.883 26.7976 17.0357 26.8011H39.6631C39.8158 26.7976 39.9677 26.8257 40.1098 26.8839C40.2519 26.9422 40.3814 27.0292 40.4906 27.14C40.5998 27.2508 40.6866 27.3831 40.7458 27.5292C40.8051 27.6753 40.8356 27.8321 40.8356 27.9906C40.8356 28.1491 40.8051 28.3059 40.7458 28.452C40.6866 28.5981 40.5998 28.7304 40.4906 28.8412C40.3814 28.952 40.2519 29.0391 40.1098 29.0973C39.9677 29.1555 39.8158 29.1836 39.6631 29.1801Z" fill="#BC7586"></path>
                <path d="M39.6631 35.2075H17.0357C16.883 35.211 16.7311 35.1828 16.589 35.1246C16.4469 35.0664 16.3175 34.9793 16.2083 34.8685C16.0991 34.7577 16.0123 34.6254 15.953 34.4793C15.8938 34.3333 15.8633 34.1764 15.8633 34.0179C15.8633 33.8595 15.8938 33.7026 15.953 33.5565C16.0123 33.4105 16.0991 33.2782 16.2083 33.1674C16.3175 33.0566 16.4469 32.9695 16.589 32.9113C16.7311 32.8531 16.883 32.8249 17.0357 32.8284H39.6631C39.8158 32.8249 39.9677 32.8531 40.1098 32.9113C40.2519 32.9695 40.3814 33.0566 40.4906 33.1674C40.5998 33.2782 40.6866 33.4105 40.7458 33.5565C40.8051 33.7026 40.8356 33.8595 40.8356 34.0179C40.8356 34.1764 40.8051 34.3333 40.7458 34.4793C40.6866 34.6254 40.5998 34.7577 40.4906 34.8685C40.3814 34.9793 40.2519 35.0664 40.1098 35.1246C39.9677 35.1828 39.8158 35.211 39.6631 35.2075Z" fill="#BC7586"></path>
                <path d="M35.9782 41.2348H17.0357C16.883 41.2383 16.7311 41.2101 16.589 41.1519C16.4469 41.0937 16.3175 41.0067 16.2083 40.8959C16.0991 40.7851 16.0123 40.6528 15.953 40.5067C15.8938 40.3606 15.8633 40.2038 15.8633 40.0453C15.8633 39.8868 15.8938 39.73 15.953 39.5839C16.0123 39.4378 16.0991 39.3055 16.2083 39.1947C16.3175 39.0839 16.4469 38.9968 16.589 38.9386C16.7311 38.8804 16.883 38.8523 17.0357 38.8558H35.9782C36.1309 38.8523 36.2828 38.8804 36.4249 38.9386C36.567 38.9968 36.6964 39.0839 36.8056 39.1947C36.9149 39.3055 37.0016 39.4378 37.0609 39.5839C37.1201 39.73 37.1506 39.8868 37.1506 40.0453C37.1506 40.2038 37.1201 40.3606 37.0609 40.5067C37.0016 40.6528 36.9149 40.7851 36.8056 40.8959C36.6964 41.0067 36.567 41.0937 36.4249 41.1519C36.2828 41.2101 36.1309 41.2383 35.9782 41.2348Z" fill="#BC7586"></path>
                <path d="M35.9782 47.2778H17.0357C16.883 47.2813 16.7311 47.2531 16.589 47.1949C16.4469 47.1367 16.3175 47.0496 16.2083 46.9388C16.0991 46.828 16.0123 46.6957 15.953 46.5497C15.8938 46.4036 15.8633 46.2467 15.8633 46.0883C15.8633 45.9298 15.8938 45.7729 15.953 45.6269C16.0123 45.4808 16.0991 45.3485 16.2083 45.2377C16.3175 45.1269 16.4469 45.0398 16.589 44.9816C16.7311 44.9234 16.883 44.8952 17.0357 44.8987H35.9782C36.1309 44.8952 36.2828 44.9234 36.4249 44.9816C36.567 45.0398 36.6964 45.1269 36.8056 45.2377C36.9149 45.3485 37.0016 45.4808 37.0609 45.6269C37.1201 45.7729 37.1506 45.9298 37.1506 46.0883C37.1506 46.2467 37.1201 46.4036 37.0609 46.5497C37.0016 46.6957 36.9149 46.828 36.8056 46.9388C36.6964 47.0496 36.567 47.1367 36.4249 47.1949C36.2828 47.2531 36.1309 47.2813 35.9782 47.2778Z" fill="#BC7586"></path>
                <path d="M39.6631 53.3051H17.0357C16.883 53.3086 16.7311 53.2805 16.589 53.2223C16.4469 53.1641 16.3175 53.077 16.2083 52.9662C16.0991 52.8554 16.0123 52.7231 15.953 52.577C15.8938 52.4309 15.8633 52.2741 15.8633 52.1156C15.8633 51.9571 15.8938 51.8003 15.953 51.6542C16.0123 51.5081 16.0991 51.3758 16.2083 51.265C16.3175 51.1542 16.4469 51.0672 16.589 51.0089C16.7311 50.9507 16.883 50.9226 17.0357 50.9261H39.6631C39.8158 50.9226 39.9677 50.9507 40.1098 51.0089C40.2519 51.0672 40.3814 51.1542 40.4906 51.265C40.5998 51.3758 40.6866 51.5081 40.7458 51.6542C40.8051 51.8003 40.8356 51.9571 40.8356 52.1156C40.8356 52.2741 40.8051 52.4309 40.7458 52.577C40.6866 52.7231 40.5998 52.8554 40.4906 52.9662C40.3814 53.077 40.2519 53.1641 40.1098 53.2223C39.9677 53.2805 39.8158 53.3086 39.6631 53.3051Z" fill="#BC7586"></path>
                <path d="M42.4347 62.229H32.317C32.1643 62.2325 32.0124 62.2043 31.8703 62.1461C31.7282 62.0879 31.5987 62.0008 31.4895 61.89C31.3803 61.7792 31.2935 61.6469 31.2343 61.5008C31.175 61.3548 31.1445 61.1979 31.1445 61.0394C31.1445 60.881 31.175 60.7241 31.2343 60.578C31.2935 60.432 31.3803 60.2996 31.4895 60.1888C31.5987 60.078 31.7282 59.991 31.8703 59.9328C32.0124 59.8746 32.1643 59.8464 32.317 59.8499H42.4347C42.7345 59.8568 43.0197 59.9851 43.2294 60.2075C43.4391 60.4298 43.5565 60.7284 43.5565 61.0394C43.5565 61.3504 43.4391 61.6491 43.2294 61.8714C43.0197 62.0937 42.7345 62.2221 42.4347 62.229Z" fill="#BC7586"></path>
                <path d="M55.4088 58.0852C55.3634 58.0853 55.3186 58.0748 55.2776 58.0547C55.2366 58.0345 55.2005 58.0052 55.1719 57.9687L41.4023 41.4708C41.3517 41.41 41.3217 41.3336 41.317 41.2534C41.3124 41.1732 41.3333 41.0937 41.3765 41.027L45.9424 34.121C45.971 34.0759 46.0101 34.039 46.0561 34.0137C46.1022 33.9885 46.1536 33.9757 46.2057 33.9766H64.6108C64.6625 33.9777 64.7132 33.9914 64.7589 34.0165C64.8047 34.0415 64.8441 34.0773 64.8741 34.121L69.4395 41.027C69.4826 41.0937 69.5034 41.1733 69.4986 41.2535C69.4938 41.3337 69.4638 41.4101 69.4131 41.4708L55.6457 57.9792C55.6152 58.0125 55.5784 58.0391 55.5377 58.0573C55.497 58.0755 55.4531 58.085 55.4088 58.0852ZM42.0525 41.2105L55.4088 57.2174L68.7657 41.2105L64.4423 34.6825H46.373L42.0525 41.2105Z" fill="#BC7586" stroke="#BC7586" stroke-width="0.5" stroke-miterlimit="10"></path>
                <path d="M69.1795 41.5812H41.6415C41.5536 41.576 41.471 41.5361 41.4105 41.4697C41.3501 41.4033 41.3164 41.3155 41.3164 41.2242C41.3164 41.1329 41.3501 41.045 41.4105 40.9787C41.471 40.9123 41.5536 40.8724 41.6415 40.8672H69.1795C69.2674 40.8724 69.35 40.9123 69.4105 40.9787C69.4709 41.045 69.5046 41.1329 69.5046 41.2242C69.5046 41.3155 69.4709 41.4033 69.4105 41.4697C69.35 41.5361 69.2674 41.576 69.1795 41.5812Z" fill="#BC7586" stroke="#BC7586" stroke-width="0.5" stroke-miterlimit="10"></path>
                <path d="M49.2206 41.5855H49.1679C49.1158 41.5767 49.0667 41.5543 49.0251 41.5205C48.9836 41.4867 48.951 41.4425 48.9304 41.3921L45.9192 34.4879C45.8819 34.4042 45.8765 34.3089 45.9042 34.2212C45.9319 34.1336 45.9907 34.0601 46.0685 34.0156C46.107 33.9958 46.1489 33.9844 46.1917 33.982C46.2345 33.9796 46.2774 33.9863 46.3176 34.0017C46.3579 34.0171 46.3947 34.0408 46.4258 34.0714C46.4569 34.102 46.4817 34.1389 46.4986 34.1798L49.3088 40.621L54.9028 34.093C54.9327 34.0582 54.9692 34.0299 55.0098 34.0099C55.0505 33.9899 55.0947 33.9786 55.1397 33.9766C55.1851 33.9765 55.2299 33.9869 55.2709 34.007C55.3118 34.0272 55.348 34.0566 55.3766 34.093L60.9178 40.6496L64.3243 34.16C64.343 34.1197 64.3698 34.084 64.403 34.0553C64.4361 34.0267 64.4748 34.0057 64.5164 33.9938C64.558 33.982 64.6015 33.9795 64.6441 33.9866C64.6867 33.9936 64.7274 34.0101 64.7633 34.0348C64.8014 34.0587 64.8345 34.0901 64.8607 34.1274C64.887 34.1646 64.9059 34.2068 64.9163 34.2517C64.9267 34.2965 64.9285 34.343 64.9215 34.3886C64.9146 34.4341 64.899 34.4778 64.8756 34.517L61.2513 41.4212C61.2274 41.4691 61.1924 41.5101 61.1495 41.5406C61.1066 41.5711 61.0571 41.5901 61.0054 41.596C60.9543 41.6015 60.9026 41.5938 60.855 41.5735C60.8075 41.5531 60.7656 41.5208 60.7331 41.4795L55.1397 34.8449L49.4581 41.4789C49.3953 41.545 49.3101 41.5832 49.2206 41.5855Z" fill="#BC7586" stroke="#BC7586" stroke-width="0.5" stroke-miterlimit="10"></path>
                <path d="M55.4062 58.0803C55.3407 58.079 55.277 58.0571 55.2237 58.0175C55.1704 57.9778 55.1299 57.9224 55.1075 57.8584L48.9257 41.36C48.8906 41.2739 48.8893 41.177 48.9222 41.0899C48.955 41.0028 49.0194 40.9326 49.1015 40.894C49.1411 40.8762 49.1839 40.8671 49.2272 40.8672C49.2704 40.8673 49.3131 40.8767 49.3527 40.8949C49.3922 40.913 49.4278 40.9394 49.457 40.9724C49.4862 41.0054 49.5086 41.0444 49.5226 41.0868L55.4001 56.7496L60.6779 41.1089C60.6907 41.0663 60.7117 41.0267 60.7396 40.9927C60.7675 40.9587 60.8018 40.931 60.8404 40.9112C60.879 40.8913 60.9211 40.8798 60.9641 40.8774C61.0071 40.875 61.0502 40.8816 61.0906 40.897C61.1726 40.9325 61.2384 40.9993 61.2743 41.0836C61.3102 41.1679 61.3136 41.2632 61.2837 41.3501L55.7078 57.8491C55.6899 57.9168 55.6509 57.9765 55.5969 58.0186C55.5428 58.0608 55.4767 58.0831 55.4091 58.0821L55.4062 58.0803Z" fill="#BC7586" stroke="#BC7586" stroke-width="0.5" stroke-miterlimit="10"></path>
              </svg>