<svg width="40" height="40" viewBox="0 0 80 80" fill="none" xmlns="http://www.w3.org/2000/svg">
                <path d="M41.267 20.8063C45.2512 20.8063 49.2355 20.8179 53.2197 20.7935C53.9142 20.7889 54.4036 21.004 54.866 21.5556C57.7962 25.0475 60.7561 28.515 63.7099 31.9843C64.4898 32.9001 64.4898 33.226 63.7279 34.1777C58.7336 40.4173 53.74 46.6582 48.7472 52.9005C46.5559 55.635 44.3387 58.3521 42.1266 61.0674C41.4934 61.8457 40.8798 61.8509 40.2466 61.0674C37.0338 57.092 33.8255 53.1131 30.6217 49.1307C26.544 44.0619 22.4691 38.9912 18.397 33.9185C17.8767 33.2724 17.8525 32.8346 18.4155 32.1786C21.2165 28.9239 24.0904 25.7324 26.8043 22.4029C27.8483 21.1223 28.9568 20.7262 30.5177 20.7732C34.098 20.8817 37.6839 20.8074 41.267 20.8063ZM48.1291 33.8199C48.0125 33.7944 47.8945 33.7764 47.7757 33.766C43.4403 33.7625 39.1054 33.766 34.7706 33.7515C34.2553 33.7515 34.2784 33.9162 34.3941 34.3477C36.3972 41.8372 38.5447 49.2815 40.6815 56.7282C40.8309 57.2501 40.9939 57.7669 41.1506 58.2859C43.6763 50.1665 45.871 42.0002 48.1291 33.8199ZM38.7863 56.7027C38.8818 55.7324 38.525 54.9338 38.2806 54.1137C36.3505 47.5602 34.5368 40.9754 32.7517 34.3807C32.6304 33.9324 32.4809 33.759 32.0039 33.7625C28.3736 33.7857 24.7433 33.7747 21.1131 33.7805C20.9136 33.7805 20.6962 33.7033 20.4568 33.8866L38.7863 56.7027ZM61.849 33.8779C61.6501 33.8199 61.5877 33.7834 61.5248 33.7834C57.7529 33.7781 53.9811 33.7799 50.2092 33.7648C49.8406 33.7648 49.735 33.9388 49.6507 34.2607C49.2342 35.8555 48.8049 37.4466 48.3629 39.0337C46.8312 44.5166 45.2969 49.9987 43.76 55.4801C43.6751 55.7846 43.3144 56.2225 43.5757 56.3715C43.9471 56.5838 44.1303 56.0374 44.3376 55.7794C48.6633 50.3835 52.982 44.9825 57.2939 39.5765C58.7907 37.7056 60.2881 35.8295 61.849 33.8779ZM35.1976 32.0133C35.31 32.0818 35.3661 32.1456 35.4223 32.1456C39.2157 32.1541 43.0088 32.1597 46.8014 32.1624C47.2133 32.1624 47.1576 31.9623 46.9885 31.7141C46.5559 31.0761 46.1238 30.4382 45.6838 29.8095C44.2297 27.7217 42.7728 25.6385 41.2563 23.4665C39.2043 26.3599 37.2085 29.1768 35.1976 32.0133ZM20.645 32.1519C24.4287 32.1519 28.0269 32.1473 31.6246 32.1566C32.1466 32.1566 31.9955 31.902 31.8718 31.6137C30.7706 29.0387 29.6721 26.4624 28.5765 23.8847C28.3826 23.4253 28.2663 23.2392 27.8505 23.7495C26.8217 25.0121 25.7238 26.2155 24.6624 27.4502C23.3589 28.9697 22.061 30.4973 20.6478 32.1519H20.645ZM61.7181 32.1641C59.2082 29.1837 56.8331 26.3646 54.4609 23.5425C54.2266 23.2647 54.1075 23.3343 53.9743 23.6457C52.83 26.3135 51.6789 28.9773 50.521 31.6369C50.3772 31.9687 50.3525 32.1717 50.8194 32.1699C54.38 32.1595 57.9367 32.1641 61.7226 32.1641H61.7181ZM48.7618 31.565C48.8177 31.5016 48.8678 31.4328 48.9113 31.3597C50.1316 28.5759 51.3442 25.7921 52.5719 23.0084C52.8343 22.4127 52.4499 22.4928 52.1173 22.4928C49.1525 22.4966 46.1877 22.5026 43.2228 22.5108C43.0312 22.5108 42.7997 22.4133 42.6261 22.6662C44.6916 25.6071 46.816 28.5063 48.7618 31.565ZM33.5732 31.5679C35.6797 28.4837 37.744 25.5196 39.9898 22.4957C36.5691 22.4957 33.3215 22.4957 30.0744 22.4957C29.6036 22.4957 29.7373 22.7445 29.8581 23.0084C30.2711 23.9084 30.6947 24.8062 31.0863 25.7139C31.9061 27.6144 32.7079 29.5282 33.5732 31.5679Z" fill="#BC7586" stroke="#BC7586" stroke-width="0.25" stroke-miterlimit="10"></path>
                <path d="M28.0439 66.6286C28.4788 67.3959 28.862 68.0785 29.2503 68.7541C29.4829 69.1601 29.6436 69.569 29.152 69.8903C28.7772 70.135 28.303 69.9581 28.0282 69.4652C27.2146 68.0033 26.4108 66.5358 25.6166 65.0627C25.2998 64.4712 25.4824 64.0611 26.133 63.8912C27.9198 63.4272 29.7133 62.9813 31.5028 62.5248C31.9827 62.4025 32.2692 62.635 32.3957 63.0572C32.5316 63.5113 32.3288 63.828 31.8709 63.944C30.8359 64.2055 29.797 64.4538 28.7598 64.7078C28.5474 64.76 28.335 64.8133 28.1013 64.9815C28.7581 65.2245 29.4076 65.4884 30.0723 65.7065C32.93 66.6431 35.8304 67.3101 38.8572 67.4655C43.4163 67.6975 47.791 67.0073 51.9315 65.0749C58.7768 61.8782 63.7837 56.8343 66.765 49.8255C68.7473 45.1621 69.4311 40.2678 68.9029 35.2582C68.1798 28.4234 65.3316 22.5519 60.4821 17.6803C60.3944 17.5927 60.3107 17.5011 60.2203 17.4164C59.8831 17.1032 59.8758 16.7593 60.1798 16.4392C60.4838 16.119 60.8428 16.1312 61.1687 16.4195C61.9744 17.1322 62.6959 17.9302 63.3842 18.7532C67.3471 23.4897 69.6817 28.9326 70.3216 35.0941C70.9183 40.8356 70.0154 46.3452 67.5842 51.5758C65.4047 56.2654 62.1458 60.071 58.0211 63.1489C55.0842 65.3405 51.8686 66.9615 48.3439 67.9399C46.3212 68.5007 44.2641 68.8162 42.1633 68.949C39.0117 69.1479 35.931 68.7843 32.8794 68.0477C31.485 67.7042 30.1124 67.2725 28.7693 66.755C28.5789 66.6831 28.4002 66.5874 28.0439 66.6286ZM28.1462 66.6286C28.1344 66.6153 28.1237 66.5915 28.1114 66.5909C28.099 66.5903 28.085 66.6106 28.0715 66.6222L28.1243 66.6646L28.1462 66.6286Z" fill="#BC7586" stroke="#BC7586" stroke-width="0.5" stroke-miterlimit="10"></path>
                <path d="M50.9076 13.4635C50.4705 12.6748 50.0491 11.8779 49.5906 11.1008C49.3468 10.6884 49.3501 10.3468 49.7749 10.1032C50.2244 9.84341 50.5368 10.1142 50.7481 10.4703C51.3099 11.4139 51.8404 12.3749 52.3843 13.3284C52.6652 13.8225 52.9534 14.3143 53.2321 14.8084C53.5771 15.4214 53.4237 15.8117 52.7315 15.9828C51.3448 16.325 49.9525 16.6434 48.5607 16.9687C48.1988 17.0523 47.8342 17.1335 47.4662 17.1804C47.0695 17.2303 46.8268 17.0244 46.7717 16.6324C46.7194 16.2554 46.8464 15.9898 47.2594 15.8929C48.3573 15.636 49.4507 15.3617 50.729 15.0503C49.8356 14.715 49.1141 14.4065 48.364 14.1745C46.3048 13.5279 44.2101 13.0784 42.048 12.9125C39.5522 12.7206 37.0659 12.7385 34.6026 13.1706C25.816 14.7191 19.3449 19.5101 15.0741 27.285C12.2821 32.3666 11.4303 37.8559 12.0602 43.5656C12.7558 49.8679 15.4489 55.2523 19.8865 59.7736C20.458 60.3535 20.5468 60.694 20.2186 61.006C19.8815 61.3279 19.4196 61.2275 18.9005 60.6899C14.4167 56.0503 11.5365 50.6033 10.7533 44.1612C9.72224 35.6555 11.8208 28.0094 17.3834 21.4298C20.9642 17.1961 25.4401 14.2522 30.7639 12.6226C34.1205 11.5955 37.5626 11.2556 41.0462 11.4174C44.3757 11.5697 47.6564 12.3006 50.7503 13.5795C50.8116 13.6317 50.8829 13.6653 50.9481 13.605C50.9644 13.5899 50.9228 13.5122 50.9076 13.4635Z" fill="#BC7586" stroke="#BC7586" stroke-width="0.5" stroke-miterlimit="10"></path>
              </svg>