<svg width="40" height="40" viewBox="0 0 80 80" fill="none" xmlns="http://www.w3.org/2000/svg">
                <path d="M69.8034 51.5704C69.2013 50.4539 68.2448 49.5819 67.0925 49.0991C65.9402 48.6162 64.6615 48.5516 63.4684 48.9159L48.564 53.4034C48.4823 53.4273 48.3966 53.4342 48.3122 53.4238C48.2278 53.4133 48.1462 53.3857 48.0723 53.3426C47.9985 53.2994 47.9337 53.2416 47.882 53.1724C47.8302 53.1033 47.7924 53.0243 47.7708 52.94C47.4479 51.7528 46.8358 50.6692 45.992 49.7911C45.1482 48.9129 44.1003 48.2689 42.9469 47.9197L32.8043 44.7961C32.6052 44.7337 32.3919 44.7375 32.195 44.807L23.6026 47.7966C23.5061 47.8302 23.4032 47.8399 23.3023 47.8246C23.2014 47.8094 23.1055 47.7698 23.0226 47.709C22.9397 47.6483 22.872 47.5682 22.8253 47.4753C22.7786 47.3824 22.7542 47.2795 22.754 47.175V46.4355C22.754 45.9892 22.581 45.5611 22.273 45.2455C21.9649 44.9299 21.5472 44.7525 21.1116 44.7525H12.1424C11.7068 44.7525 11.2891 44.9299 10.9811 45.2455C10.673 45.5611 10.5 45.9892 10.5 46.4355V64.99C10.5001 65.4363 10.6732 65.8643 10.9812 66.1799C11.2892 66.4955 11.7069 66.6729 12.1424 66.673H21.1116C21.5471 66.6729 21.9648 66.4955 22.2728 66.1799C22.5808 65.8643 22.7539 65.4363 22.754 64.99C22.7538 64.8873 22.7771 64.786 22.822 64.6942C22.867 64.6023 22.9323 64.5226 23.0127 64.4613C23.0932 64.4001 23.1865 64.359 23.2853 64.3414C23.3841 64.3237 23.4855 64.3301 23.5814 64.3599C29.1315 66.0881 42.9486 69.7852 43.635 69.9685C43.8547 70.0265 44.0871 70.0063 44.2941 69.9112L51.9769 66.4055C52.2194 66.2948 52.4091 66.09 52.5042 65.836C52.5993 65.5821 52.592 65.2998 52.484 65.0513C52.376 64.8029 52.1761 64.6085 51.9282 64.5111C51.6804 64.4137 51.4049 64.4211 51.1624 64.5318L44.0068 67.7969C43.874 67.8576 43.7249 67.8702 43.5842 67.8324C38.3449 66.4313 26.7573 63.2744 23.1951 62.0927C23.0663 62.0497 22.9542 61.966 22.8747 61.8536C22.7953 61.7412 22.7526 61.6059 22.7529 61.4671V50.7266C22.7529 50.5891 22.7949 50.4551 22.873 50.3433C22.9511 50.2315 23.0614 50.1476 23.1884 50.1033L32.3392 46.919C32.4658 46.8749 32.6026 46.8725 32.7305 46.9121L42.37 49.8834C43.3109 50.1697 44.151 50.7286 44.7892 51.4927C45.4274 52.2569 45.8365 53.1937 45.9673 54.1905C45.983 54.3018 45.9707 54.4153 45.9316 54.5204C45.8924 54.6254 45.8278 54.7185 45.7437 54.7908C44.7185 55.669 42.11 57.2975 37.5455 56.3712C37.2854 56.3181 37.0153 56.373 36.7946 56.5238C36.574 56.6747 36.4209 56.9092 36.369 57.1758C36.3171 57.4423 36.3707 57.7191 36.5179 57.9452C36.6652 58.1712 36.894 58.3281 37.1542 58.3813C38.1436 58.5872 39.1504 58.6931 40.1601 58.6975C44.2902 58.6975 46.6449 56.7762 47.4706 55.9479C47.5451 55.8735 47.6363 55.8191 47.7361 55.7892L64.0286 50.8841C64.8767 50.6277 65.7882 50.7113 66.5783 51.1182C67.3684 51.525 67.9778 52.2246 68.2831 53.075C68.5883 53.9253 68.5665 54.8628 68.222 55.6973C67.8775 56.5318 67.2361 57.2007 66.428 57.5685L54.6614 62.9376C54.4192 63.0483 54.2297 63.253 54.1348 63.5068C54.0399 63.7606 54.0472 64.0427 54.1552 64.2909C54.2632 64.5391 54.4631 64.7332 54.7107 64.8305C54.9584 64.9278 55.2337 64.9203 55.4759 64.8096L67.247 59.4387C67.9425 59.1213 68.5658 58.6588 69.0773 58.0809C69.5888 57.503 69.9772 56.8222 70.2178 56.082C70.4584 55.3418 70.5459 54.5584 70.4748 53.7816C70.4036 53.0048 70.1754 52.2518 69.8045 51.5704H69.8034ZM20.1115 64.6223H13.1426C13.0582 64.6224 12.9746 64.6054 12.8967 64.5723C12.8187 64.5393 12.7479 64.4908 12.6882 64.4297C12.6285 64.3685 12.5812 64.2959 12.549 64.2161C12.5167 64.1362 12.5001 64.0506 12.5002 63.9641V47.4615C12.5002 47.2869 12.5679 47.1195 12.6884 46.9961C12.8088 46.8726 12.9722 46.8033 13.1426 46.8033H20.1115C20.2818 46.8033 20.4452 46.8726 20.5657 46.9961C20.6861 47.1195 20.7538 47.2869 20.7538 47.4615V63.9641C20.7539 64.0506 20.7373 64.1362 20.7051 64.2161C20.6728 64.2959 20.6255 64.3685 20.5658 64.4297C20.5062 64.4908 20.4353 64.5393 20.3574 64.5723C20.2794 64.6054 20.1958 64.6224 20.1115 64.6223Z" fill="#BC7586" stroke="#BC7586" stroke-width="0.5" stroke-miterlimit="10"></path>
                <path d="M15.6722 50.8579H17.5897C17.723 50.8611 17.8555 50.837 17.9796 50.787C18.1037 50.7369 18.2167 50.662 18.3121 50.5665C18.4075 50.4711 18.4833 50.3571 18.535 50.2311C18.5868 50.1052 18.6134 49.97 18.6134 49.8334C18.6134 49.6968 18.5868 49.5615 18.535 49.4356C18.4833 49.3097 18.4075 49.1957 18.3121 49.1002C18.2167 49.0048 18.1037 48.9298 17.9796 48.8798C17.8555 48.8298 17.723 48.8057 17.5897 48.8089H15.6722C15.5389 48.8057 15.4063 48.8298 15.2823 48.8798C15.1582 48.9298 15.0452 49.0048 14.9498 49.1002C14.8544 49.1957 14.7786 49.3097 14.7268 49.4356C14.6751 49.5615 14.6484 49.6968 14.6484 49.8334C14.6484 49.97 14.6751 50.1052 14.7268 50.2311C14.7786 50.3571 14.8544 50.4711 14.9498 50.5665C15.0452 50.662 15.1582 50.7369 15.2823 50.787C15.4063 50.837 15.5389 50.8611 15.6722 50.8579Z" fill="#BC7586" stroke="#BC7586" stroke-width="1.01" stroke-miterlimit="10"></path>
                <path d="M46.7322 19.8374C46.7466 19.8482 46.7617 19.858 46.7775 19.8666C46.9804 19.9669 47.0805 20.1531 47.0374 20.3564C46.9944 20.5598 46.8261 20.6927 46.6042 20.6967C46.3928 20.7007 46.1815 20.6967 45.9702 20.6967H42.8396L42.976 20.8147C43.8036 21.4993 44.3426 22.4837 44.4815 23.5642C44.4966 23.6708 44.5324 23.7046 44.6392 23.704C45.2966 23.6983 45.9536 23.6983 46.6103 23.704C46.9519 23.704 47.1531 24.0443 46.9927 24.337C46.9027 24.5014 46.7579 24.5598 46.5801 24.5598C45.9512 24.5598 45.3223 24.5598 44.6934 24.5598C44.5039 24.5598 44.5039 24.5598 44.4793 24.7592C44.2691 26.4685 42.9089 27.9808 41.2509 28.3537C40.8556 28.4384 40.4521 28.4768 40.0484 28.4682C39.657 28.4642 39.2613 28.4682 38.8185 28.4682C38.9029 28.5484 38.9588 28.6006 39.0142 28.6538L44.098 33.5802C44.1863 33.6661 44.2752 33.752 44.3624 33.8391C44.5581 34.0344 44.5777 34.3002 44.4111 34.4812C44.2445 34.6622 43.9873 34.6611 43.7861 34.4658L39.9886 30.7825C39.1742 29.9927 38.3592 29.2034 37.5433 28.4144C37.4489 28.3227 37.3695 28.2248 37.3555 28.0867C37.3281 27.8181 37.5277 27.6033 37.8117 27.6027C38.6372 27.6027 39.4631 27.6027 40.2893 27.6027C40.9982 27.6106 41.6906 27.384 42.2638 26.9565C43.0168 26.3986 43.4713 25.6448 43.6379 24.7059C43.6614 24.5741 43.6217 24.557 43.5077 24.5575C41.6349 24.5602 39.7623 24.5602 37.8899 24.5575C37.8196 24.5599 37.7492 24.5553 37.6797 24.5438C37.5822 24.5239 37.4951 24.4683 37.4345 24.3875C37.3739 24.3067 37.3441 24.2061 37.3505 24.1044C37.3555 24.0026 37.3963 23.906 37.4651 23.8323C37.534 23.7587 37.6265 23.7129 37.7256 23.7034C37.7815 23.6977 37.8374 23.7 37.8933 23.7C39.7616 23.7 41.6295 23.7 43.4971 23.7C43.629 23.7 43.6569 23.6725 43.6351 23.535C43.4244 22.1837 42.2828 20.9985 40.9518 20.7562C40.7118 20.7132 40.4686 20.6923 40.225 20.6938C39.423 20.6938 38.6206 20.6938 37.8178 20.6938C37.5137 20.6938 37.3108 20.4733 37.3533 20.1949C37.3812 20.0087 37.5092 19.9085 37.6619 19.834L46.7322 19.8374Z" fill="#BC7586" stroke="#BC7586" stroke-miterlimit="10"></path>
                <path d="M42.1909 44.4455C38.8666 44.4455 35.6169 43.4354 32.8528 41.543C30.0888 39.6505 27.9344 36.9607 26.6623 33.8136C25.3901 30.6666 25.0572 27.2037 25.7058 23.8628C26.3543 20.5219 27.9552 17.4531 30.3058 15.0444C33.4579 11.8145 37.7331 10 42.1909 10C46.6486 10 50.9238 11.8145 54.0759 15.0444C57.228 18.2743 58.9989 22.655 58.9989 27.2228C58.9989 31.7906 57.228 36.1712 54.0759 39.4011C52.5188 41.0054 50.6666 42.2773 48.6265 43.1432C46.5864 44.009 44.399 44.4517 42.1909 44.4455ZM54.5617 36.0931C56.3435 33.4958 57.2979 30.3975 57.2943 27.2228C57.2943 18.6894 50.5188 11.7467 42.1909 11.7467C33.8629 11.7467 27.0875 18.6894 27.0875 27.2228C27.0875 35.7562 33.8629 42.6989 42.1909 42.6989C47.3016 42.6989 51.8275 40.0845 54.5617 36.0931Z" fill="#BC7586" stroke="#BC7586" stroke-width="0.5" stroke-miterlimit="10"></path>
                <path d="M50.5537 64.8203L58.4925 61.2012L59.4563 62.9884L51.1256 66.7903L50.5537 64.8203Z" fill="#BC7586" stroke="#BC7586" stroke-width="0.5" stroke-miterlimit="10"></path>
              </svg>