<svg width="40" height="40" viewBox="0 0 80 80" fill="none" xmlns="http://www.w3.org/2000/svg">
                <path d="M46.5 58V22C46.5 20.4087 45.8679 18.8826 44.7426 17.7574C43.6174 16.6321 42.0913 16 40.5 16H16.5C14.9087 16 13.3826 16.6321 12.2574 17.7574C11.1321 18.8826 10.5 20.4087 10.5 22V55C10.5 55.7957 10.8161 56.5587 11.3787 57.1213C11.9413 57.6839 12.7044 58 13.5 58H19.5" stroke="#BC7586" stroke-width="2.5" stroke-linecap="round" stroke-linejoin="round"></path>
                <path d="M49.4951 58.0039H31.4951" stroke="#BC7586" stroke-width="2.5" stroke-linecap="round" stroke-linejoin="round"></path>
                <path d="M40.5 43H16.5" stroke="#BC7586" stroke-width="2.5" stroke-linecap="round" stroke-linejoin="round"></path>
                <path d="M40.5 34H16.5" stroke="#BC7586" stroke-width="2.5" stroke-linecap="round" stroke-linejoin="round"></path>
                <path d="M40.5 25H16.5" stroke="#BC7586" stroke-width="2.5" stroke-linecap="round" stroke-linejoin="round"></path>
                <path d="M61.5 58.0098H67.5C68.2956 58.0098 69.0587 57.6937 69.6213 57.1311C70.1839 56.5685 70.5 55.8054 70.5 55.0098V44.0598C70.4988 43.379 70.266 42.7188 69.84 42.1878L59.4 29.1378C59.1194 28.7864 58.7635 28.5026 58.3584 28.3074C57.9534 28.1121 57.5096 28.0104 57.06 28.0098H46.5" stroke="#BC7586" stroke-width="2.5" stroke-linecap="round" stroke-linejoin="round"></path>
                <path d="M55.4951 64C58.8088 64 61.4951 61.3137 61.4951 58C61.4951 54.6863 58.8088 52 55.4951 52C52.1814 52 49.4951 54.6863 49.4951 58C49.4951 61.3137 52.1814 64 55.4951 64Z" stroke="#BC7586" stroke-width="2.5" stroke-linecap="round" stroke-linejoin="round"></path>
                <path d="M25.5 64C28.8137 64 31.5 61.3137 31.5 58C31.5 54.6863 28.8137 52 25.5 52C22.1863 52 19.5 54.6863 19.5 58C19.5 61.3137 22.1863 64 25.5 64Z" stroke="#BC7586" stroke-width="2.5" stroke-linecap="round" stroke-linejoin="round"></path>
              </svg>